<?xml version="1.0" encoding="UTF-8" standalone="no"?>
<!-- Created with Inkscape (http://www.inkscape.org/) -->

<svg
   width="32"
   height="32"
   viewBox="0 0 32 32"
   version="1.1"
   id="svg1"
   xml:space="preserve"
   inkscape:version="1.3 (0e150ed6c4, 2023-07-21)"
   sodipodi:docname="splat3_stages.svg"
   inkscape:export-filename="..\..\..\Programowanie\Rust\splat3-stages-new\src-tauri\icons\icon.png"
   inkscape:export-xdpi="1536"
   inkscape:export-ydpi="1536"
   xmlns:inkscape="http://www.inkscape.org/namespaces/inkscape"
   xmlns:sodipodi="http://sodipodi.sourceforge.net/DTD/sodipodi-0.dtd"
   xmlns:xlink="http://www.w3.org/1999/xlink"
   xmlns="http://www.w3.org/2000/svg"
   xmlns:svg="http://www.w3.org/2000/svg"><sodipodi:namedview
     id="namedview1"
     pagecolor="#505050"
     bordercolor="#ffffff"
     borderopacity="1"
     inkscape:showpageshadow="0"
     inkscape:pageopacity="0"
     inkscape:pagecheckerboard="1"
     inkscape:deskcolor="#505050"
     inkscape:document-units="px"
     inkscape:zoom="16"
     inkscape:cx="19.9375"
     inkscape:cy="17.15625"
     inkscape:window-width="1920"
     inkscape:window-height="1009"
     inkscape:window-x="-8"
     inkscape:window-y="-8"
     inkscape:window-maximized="1"
     inkscape:current-layer="layer1" /><defs
     id="defs1"><pattern
       inkscape:collect="always"
       xlink:href="#invert grid"
       preserveAspectRatio="xMidYMid"
       id="pattern66"
       patternTransform="matrix(0.28486046,0,0,0.28486046,-35.749928,2.9003354)"
       x="0"
       y="0" /><pattern
       patternUnits="userSpaceOnUse"
       width="12"
       height="12"
       preserveAspectRatio="xMidYMid"
       id="invert grid"
       x="0"
       y="0"
       style="fill:#ffffff"
       inkscape:label="Negatyw kraty"
       inkscape:collect="always"
       inkscape:isstock="true"><rect
         style="stroke:none;paint-order:markers fill stroke"
         id="rect2-0"
         width="10"
         height="10"
         x="0"
         y="0" /></pattern><clipPath
       clipPathUnits="userSpaceOnUse"
       id="clipPath51"><path
         id="path51"
         style="stroke-width:0.0999999;stroke-linecap:square;paint-order:markers fill stroke;stop-color:#000000"
         d="m 1806.4991,-753.5228 h 1637.2646 v 66.90533 H 1806.4991 Z" /></clipPath><clipPath
       clipPathUnits="userSpaceOnUse"
       id="clipPath5"><path
         id="path5"
         style="stroke-width:0.1;stroke-linecap:square;paint-order:markers fill stroke;stop-color:#000000"
         d="m 438.25066,553.76374 859.87054,0 v 201.39554 l -859.87054,0 z"
         sodipodi:nodetypes="ccccc" /></clipPath><clipPath
       clipPathUnits="userSpaceOnUse"
       id="clipPath38"><path
         id="path38"
         style="stroke-width:0.1;stroke-linecap:square;paint-order:markers fill stroke;stop-color:#000000"
         d="m -880.82767,-187.29769 h 1640.84 v 73.28155 h -1640.84 z" /></clipPath><clipPath
       clipPathUnits="userSpaceOnUse"
       id="clipPath52"><path
         id="path52"
         style="stroke-width:0.1;stroke-linecap:square;paint-order:markers fill stroke;stop-color:#000000"
         d="m -880.82767,-187.29769 h 1640.84 v 73.28155 h -1640.84 z" /></clipPath><linearGradient
       id="swatch2"
       inkscape:swatch="solid"><stop
         style="stop-color:#000000;stop-opacity:1;"
         offset="0"
         id="stop2" /></linearGradient><inkscape:path-effect
       effect="mirror_symmetry"
       start_point="16.000013,-0.13717431"
       end_point="16.000013,31.862826"
       center_point="16.000013,15.862826"
       id="path-effect2"
       is_visible="true"
       lpeversion="1.2"
       lpesatellites=""
       mode="vertical"
       discard_orig_path="false"
       fuse_paths="true"
       oposite_fuse="false"
       split_items="false"
       split_open="false"
       link_styles="false" /><inkscape:path-effect
       effect="bspline"
       id="path-effect1"
       is_visible="true"
       lpeversion="1.3"
       weight="33.333333"
       steps="2"
       helper_size="0"
       apply_no_weight="true"
       apply_with_weight="true"
       only_selected="false"
       uniform="false" /></defs><g
     inkscape:label="Warstwa 1"
     inkscape:groupmode="layer"
     id="layer1"><g
       id="g68"
       transform="matrix(1.1842507,0.31731902,-0.31731902,1.1842507,44.571452,-8.815468)"><path
         style="fill:#000000;fill-opacity:1;fill-rule:evenodd;stroke:#ffff02;stroke-width:0.999978;stroke-linecap:round;stroke-linejoin:round;stroke-dasharray:none;stroke-opacity:1;paint-order:normal"
         d="m -17.428386,13.086877 c -1.010647,0.709911 -2.022145,1.420631 -3.335938,2.621094 -1.313792,1.200463 -3.25467,3.230211 -4.552734,4.841797 -1.298065,1.611586 -3.250465,4.41639 -2.998047,5.738281 0.252418,1.321891 2.385598,1.628278 3.666016,2.144531 1.280417,0.516254 1.293129,0.540183 1.470703,1.966797 0.177574,1.426614 0.169802,1.450558 -0.002,2.191406 -0.171756,0.740849 -0.267882,1.498732 -0.28125,2.072266 -0.01337,0.573534 0.05554,0.963132 0.285156,1.320312 0.229618,0.357181 0.620359,0.682377 0.958984,0.677735 0.338626,-0.0046 0.625609,-0.339903 0.869141,-0.642578 0.243532,-0.302676 0.443116,-0.574342 0.642578,-0.845703 0.171631,0.382689 0.342648,0.766171 0.609375,1.152343 0.266727,0.386173 0.628415,0.776371 1.027344,0.794922 0.398929,0.01855 0.83502,-0.33514 1.15625,-0.742187 0.203358,-0.257627 0.361563,-0.53675 0.502,-0.824219 0.140437,0.287469 0.298642,0.566592 0.501953,0.824219 0.32123,0.407047 0.757321,0.760739 1.15625,0.742187 0.398929,-0.01855 0.760617,-0.408749 1.027344,-0.794922 0.266727,-0.386172 0.437744,-0.769654 0.609375,-1.152343 0.199462,0.271361 0.399046,0.543027 0.642578,0.845703 0.243532,0.302675 0.530515,0.637936 0.869141,0.642578 0.338625,0.0046 0.729366,-0.320554 0.958984,-0.677735 0.229618,-0.35718 0.298524,-0.746778 0.285156,-1.320312 -0.01337,-0.573534 -0.109494,-1.331417 -0.28125,-2.072266 -0.171755,-0.740848 -0.179527,-0.764792 -0.002,-2.191406 0.177574,-1.426614 0.190286,-1.450543 1.470703,-1.966797 1.280418,-0.516253 3.413598,-0.82264 3.666016,-2.144531 0.252465,-1.321891 -1.699935,-4.126695 -2.998,-5.738281 -1.298065,-1.611586 -3.238942,-3.641334 -4.552734,-4.841797 -1.313793,-1.200463 -2.325291,-1.911183 -3.335938,-2.621094 l -0.01758,0.01953 z"
         id="path1"
         sodipodi:nodetypes="ccccccccccccccccccccc" /><rect
         style="fill:url(#pattern66);fill-opacity:1;fill-rule:evenodd;stroke:none;stroke-width:1.06661;stroke-linecap:round;stroke-linejoin:round;stroke-opacity:1;paint-order:normal"
         id="rect2"
         width="10.299468"
         height="10.299468"
         x="-22.409275"
         y="19.681955" /><rect
         style="fill:#000000;fill-opacity:1;fill-rule:evenodd;stroke:none;stroke-width:0.943451;stroke-linecap:round;stroke-linejoin:round;stroke-opacity:1;paint-order:normal"
         id="rect67"
         width="3.2105207"
         height="3.5023861"
         x="-15.310639"
         y="26.646517" /><rect
         style="fill:#000000;fill-opacity:1;fill-rule:evenodd;stroke:none;stroke-width:1.27302;stroke-linecap:round;stroke-linejoin:round;stroke-opacity:1;paint-order:normal"
         id="rect68"
         width="3.341681"
         height="3.699718"
         x="-22.419357"
         y="19.398499" /></g></g></svg>
