<?xml version="1.0" encoding="UTF-8"?>
<!-- Generator: Adobe Illustrator 19.0.0, SVG Export Plug-In . SVG Version: 6.00 Build 0)  -->
<svg version="1.1" id="Layer_1" xmlns="http://www.w3.org/2000/svg" xmlns:xlink="http://www.w3.org/1999/xlink" x="0px" y="0px" viewBox="-281.375 400.5150146 40.75 40.75" style="enable-background:new -281.375 400.5150146 40.75 40.75;" xml:space="preserve">
<style type="text/css">
	.st0{fill:#0033FF;}
	.st1{fill:#FFFF00;}
	.st2{fill:#999999;}
</style>
<circle cx="-261" cy="420.8900146" r="20.375"/>
<path class="st0" d="M-261,438.8900146c-9.9419861,0-18-8.0580139-18-18c0-9.9420166,8.0580139-18,18-18  c9.9420013,0,18,8.0579834,18,18C-243,430.8320007-251.0579987,438.8900146-261,438.8900146z M-246.2799988,420.8900146  c0-8.1300049-6.5899963-14.7200012-14.7200012-14.7200012s-14.7200012,6.5899963-14.7200012,14.7200012  c0,8.1299744,6.5899963,14.7200012,14.7200012,14.7200012S-246.2799988,429.019989-246.2799988,420.8900146z"/>
<path class="st0" d="M-264.2940063,420.9460144l2.8420105,1.2139893l0.0480042-0.1000061  c-0.8480225-1.1139832-1.1860046-2.5979919-1.1860046-2.5979919l-1.3479919-0.7860107l-2.6900024-1.5700073  c-0.9120178,1.4820251-0.6280212,3.3840027-0.6280212,3.3840027c0.9860229,0.1719971,2.5220032,1.0400085,2.8740234,1.2460022  l0.0319824-0.0279846c-0.4799805-0.8600159-0.5820007-1.9859924-0.5820007-1.9859924l0.3699951,0.1539917  c-0.0299988,0.3919983,0.2620239,1.0700073,0.2620239,1.0700073H-264.2940063z M-261.4119873,427.7980042l-0.276001-0.0079956  l0.0159912-3.4680176c-0.7380066-0.9119873-1.8080139-1.7359924-3.45401-2.5979919  c-1.7099915-0.8959961-3.3540039-1.1940002-4.6799927-1.1959839c-1.0299988,0-1.8680115,0.1799927-2.3940125,0.3979797  c-1.2579956,0.5240173-3.3099976,2.230011-2.1019897,6.2600098c1.197998,3.9979858,4.3800049,4.9200134,4.428009,4.9339905  c2.6900024-1.2479858,3.1059875-4.8639832,3.1059875-4.8639832l-0.1480103-0.1020203  c-0.1459961,0.3420105-0.6359863,0.9040222-1.1239929,0.9140015c-0.0931396,0.0029297-0.1856689-0.0162659-0.269989-0.0559998  c-0.8540039-0.3919983-1.1400146-1.8399963-0.6400146-2.4319763c0.2260132-0.2680054,0.5240173-0.5940247,1.3980103-0.5900269  c0.5239868,0.0020142,1.256012,0.1260071,2.3059998,0.4520264c1.3680115,0.4259949,2.1159973,0.9839783,2.5339966,1.4419861  c0.4299927,0.4720154,0.6000061,1.0840149,0.2539978,1.0759888c-0.1359863,0-0.3500061-0.0979919-0.6579895-0.3379822  c-0.4880066-0.3760071-0.7640076-0.8999939-0.8460083-1.3280029c-0.3500061-0.3900146-2.1679993-0.7919922-2.2080078-0.802002  c1.3700256,3.9259949,3.5380249,5.4299927,4.6480103,5.4219971c0.0692444,0.0001526,0.1383362-0.0072327,0.2059937-0.0220032  c0.9160156-0.1959839,1.5280151-1.29599,1.1360168-3.243988c-0.40271,0.1048279-0.8179932,0.1532898-1.2340088,0.1439819  L-261.4119873,427.7980042z"/>
<path class="st1" d="M-259.2860107,418.0379944l-2.473999,1.8560181l0.0640259,0.09198  c1.3899841-0.1759949,2.84198,0.2720032,2.84198,0.2720032l0.8760071-0.5  c0.3840027-1.1279907,0.9819946-1.9660034,1.7380066-2.7680054c0.1159973-0.1239929,0.2339783-0.2399902,0.3519897-0.3519897  c-0.7579956-0.6340027-1.519989-0.9339905-1.519989-0.9339905c-0.6419983,0.7679749-2.1640015,1.6659851-2.5160217,1.867981  l0.0079956,0.0419922c0.9860229,0.0140076,2.0100098,0.4900208,2.0100098,0.4900208l-0.3179932,0.243988  c-0.3240051-0.2219849-1.0580139-0.3079834-1.0580139-0.3079834L-259.2860107,418.0379944z M-267.3760071,418.1719971  c0.110321-0.4275513,0.2828369-0.8365784,0.5119934-1.2139893l0.1440125-0.2340088l3.243988,1.8940125  c1.1460266-0.1900024,2.382019-0.70401,3.9300232-1.684021c2.8999939-1.8379822,4.0619965-4.4379883,4.2279968-5.7299805  c0.173996-1.3520203-0.276001-3.9820251-4.3699951-4.9500122c-4.0940247-0.9679871-6.4880066,1.3699951-6.4880066,1.3699951  c-0.2640076,2.95401,2.6600037,5.1220093,2.6600037,5.1220093l0.1640015-0.0780029  c-0.2640076-0.3519897-0.5559998-1.276001-0.0480042-1.6359863c0.7659912-0.5440063,2.1640015-0.0680237,2.4259949,0.6619873  c0.1900024,0.5279846,0.4199829,1.2879944-1.7319946,3.2739868c-1.052002,0.9720154-1.9100037,1.3400269-2.5160217,1.473999  c-0.8659973,0.1920166-1.7179871-0.1919861-0.4379883-0.7179871c0.5679932-0.2340088,1.1620178-0.2120056,1.5740051-0.0679932  c0.519989-0.1100159,1.7999878-1.5140076,1.7999878-1.5140076c-4.3580017-0.8280029-6.7839966,0.5079956-7.1059875,1.506012  c-0.276001,0.8540039,0.3079834,1.8859863,2.019989,2.526001L-267.3760071,418.1719971z"/>
<path class="st1" d="M-261,402.8900146c-6.8760071,0-12.8500061,3.8559875-15.8819885,9.5219727l2.4639893,2.4240112  c2.3099976-5.1080017,7.4460144-8.6659851,13.4159851-8.6659851c4.9140015,0,9.2620239,2.4099731,11.9360199,6.1099854  l3.352005-0.8940125C-248.8899994,406.2860107-254.5480042,402.8900146-261,402.8900146z"/>
<path class="st2" d="M-258.1600037,426.3699951c-0.0556641-0.1596069-0.1011047-0.3226013-0.1359863-0.4880066  c-0.210022-0.9579773-0.2220154-2.2559814-0.2220154-2.6139832l-0.0379944-0.0119934  c-0.5039978,0.8459778-1.428009,1.4960022-1.428009,1.4960022v-0.0120239h-0.0019836l-0.052002-0.3979797  c0.3540039-0.1700134,0.79599-0.7620239,0.79599-0.7620239l-0.3699951-3.0579834l-0.1100159,0.0079956  c-0.5419922,1.2919922-1.6559753,2.3259888-1.6559753,2.3259888l-0.0079956,1.8460083v-0.0039978l-0.0160217,2.8200073  c1.723999,0.0480042,3.2180176-1.1260071,3.2440186-1.1459961L-258.1600037,426.3699951z M-255.3059998,430.4339905  c1.0820007,0.8260193,3.5859985,1.7520142,6.4720001-1.3079834c2.6880035-2.8520203,2.154007-5.8600159,2.0680084-6.2579956  c-0.0040131-0.0220032-0.0080109-0.0339966-0.0080109-0.0339966c-2.4259949-1.7060242-5.7659912-0.2580261-5.7659912-0.2580261  l-0.0140076,0.1679993c0.4260101-0.0499878,1.3240051,0.1460266,1.4300079,0.7220154  c0.0039978,0.0220032,0.0079956,0.0440063,0.0099945,0.0660095c0.0879974,0.9359741-1.0220032,1.9079895-1.7859955,1.769989  c-0.552002-0.1000061-1.326004-0.2799988-1.9700012-3.1380005v-0.0119934  c-0.3179932-1.3980103-0.2080078-2.3240051-0.0220032-2.9160156c0.2100067-0.6659851,0.723999-1.1439819,0.8440094-0.6519775  c0.0359955,0.1339722,0.0399933,0.34198,0,0.6419983c-0.0820007,0.6099854-0.3980103,1.1119995-0.7280121,1.3959961  c-0.071991,0.2200012-0.0039978,0.6860046,0.0960083,1.1419983c0.1300049,0.5899963,0.3119965,1.1619873,0.3119965,1.1619873  c2.3079987-2.6779785,2.8119965-4.9799805,2.5659943-6.197998c-0.0639954-0.3039856-0.173996-0.5419922-0.3139954-0.697998  c-0.6519928-0.7219849-1.9899902-0.6740112-3.5579987,0.802002l-0.0079956-0.006012  c-0.122818,0.1158142-0.2422028,0.235199-0.3579865,0.3580017c-0.6860046,0.7279968-1.2080078,1.4620056-1.5660095,2.3600159  l0.0099792-0.006012c-0.4459839,1.1119995-0.6359863,2.4720154-0.5579834,4.3780212  c0.026001,0.6419983,0.1059875,1.243988,0.2260132,1.8039856c0.519989,2.4299927,1.7799988,4.0679932,2.6199799,4.7099915  L-255.3059998,430.4339905z"/>
<path class="st2" d="M-245.7120056,411.3859863l-3.3519897,0.8920288c1.8131256,2.5043945,2.7875977,5.518158,2.7839966,8.6099854  c0,7.6260071-5.8000031,13.8980103-13.2319946,14.6459961l-0.8840027,3.3420105h0.0059814  c9.65802-0.321991,17.3880157-8.2520142,17.3880157-17.9880066c0-3.4880066-0.9940033-6.743988-2.7120056-9.5039978  L-245.7120056,411.3859863z"/>
</svg>