<?xml version="1.0" encoding="UTF-8" standalone="no"?>
<!-- Created with Inkscape (http://www.inkscape.org/) -->

<svg
   width="512"
   height="512"
   viewBox="0 0 135.46666 135.46667"
   version="1.1"
   id="svg1"
   xml:space="preserve"
   inkscape:version="1.4 (86a8ad7, 2024-10-11)"
   sodipodi:docname="squid.svg"
   xmlns:inkscape="http://www.inkscape.org/namespaces/inkscape"
   xmlns:sodipodi="http://sodipodi.sourceforge.net/DTD/sodipodi-0.dtd"
   xmlns="http://www.w3.org/2000/svg"
   xmlns:svg="http://www.w3.org/2000/svg"><sodipodi:namedview
     id="namedview1"
     pagecolor="#ffffff"
     bordercolor="#000000"
     borderopacity="0.25"
     inkscape:showpageshadow="2"
     inkscape:pageopacity="0.0"
     inkscape:pagecheckerboard="true"
     inkscape:deskcolor="#d1d1d1"
     inkscape:document-units="mm"
     inkscape:zoom="0.71370863"
     inkscape:cx="-58.146978"
     inkscape:cy="336.97225"
     inkscape:window-width="2560"
     inkscape:window-height="1351"
     inkscape:window-x="-9"
     inkscape:window-y="-9"
     inkscape:window-maximized="1"
     inkscape:current-layer="layer1" /><defs
     id="defs1"><inkscape:path-effect
       effect="mirror_symmetry"
       start_point="69.440774,135.13107"
       end_point="69.440774,0.02322941"
       center_point="69.440774,67.57715"
       id="path-effect1"
       is_visible="true"
       lpeversion="1.2"
       lpesatellites=""
       mode="free"
       discard_orig_path="false"
       fuse_paths="true"
       oposite_fuse="true"
       split_items="false"
       split_open="false"
       link_styles="false" /></defs><g
     inkscape:label="Layer 1"
     inkscape:groupmode="layer"
     id="layer1"><path
       style="fill:#ffffff;fill-opacity:1;stroke-width:17.9917;stroke-linecap:square"
       d="M 69.441406,0.0234375 C 63.443249,-0.09616934 36.163128,28.550497 34.158203,30.539062 19.347523,45.218674 7.4199994,64.747403 8.5996094,74.970703 c 1.4417496,7.339806 15.9905566,7.339085 24.3789066,9.042969 3.53883,7.601942 7.37356,18.546548 5.210937,23.658208 -1.27791,3.12379 -2.851618,5.85409 -3.736328,9.07617 -0.64441,5.36286 1.135642,7.97371 2.326172,9.86328 1.50728,1.63834 3.866257,4.35902 6.291015,5.50586 0.655339,-0.43689 2.785119,-2.15249 5.570313,-5.63672 1.26699,-1.63835 3.387023,-5.66867 3.605469,-9.83008 -0.04369,5.79976 1.091342,9.92798 3.013672,13.76172 2.391991,3.04733 3.767956,4.19448 6.291015,4.71875 2.348301,-0.80826 4.012034,-2.41579 6.160156,-6.94727 0.832325,-1.77812 1.484634,-4.15021 1.730469,-7.82617 0.245835,3.67596 0.896191,6.04805 1.728516,7.82617 2.148123,4.53148 3.811855,6.13901 6.160156,6.94727 2.523059,-0.52427 3.899025,-1.67142 6.291016,-4.71875 1.92233,-3.83374 3.059314,-7.96196 3.015625,-13.76172 0.218446,4.16141 2.336525,8.19173 3.603515,9.83008 2.785194,3.48423 4.914974,5.19983 5.570313,5.63672 2.424758,-1.14684 4.783733,-3.86752 6.291013,-5.50586 1.19053,-1.88957 2.97058,-4.50042 2.32617,-9.86328 -0.88471,-3.22208 -2.45646,-5.95239 -3.73437,-9.07617 -2.162624,-5.11165 1.67015,-16.056266 5.20898,-23.658208 8.38835,-1.703884 22.93716,-1.703163 24.37891,-9.042969 1.17961,-10.2233 -10.74791,-29.75203 -25.55859,-44.431641 C 102.71773,28.550497 75.439563,-0.09616934 69.441406,0.0234375 Z"
       id="path1"
       sodipodi:nodetypes="ccccccccccccccccccccccccccc"
       inkscape:path-effect="#path-effect1"
       inkscape:original-d="M 69.092227,0.06950928 31.849515,33.160194 8.5194173,76.281552 l 23.7232997,7.601942 5.766991,20.446606 -4.325242,14.67961 2.097088,6.68446 6.946601,6.5534 5.76699,-6.16019 3.276698,-9.69903 1.703885,10.74757 6.946601,7.99515 7.07767,-7.60194 1.834952,-10.35438 c 0.02184,5.57039 0.783757,8.76401 1.834951,11.00971 2.148123,4.53148 3.811892,6.13835 6.160193,6.94661 2.523059,-0.52427 3.899272,-1.67112 6.291263,-4.71845 1.92233,-3.83374 3.058253,-7.96238 3.014564,-13.76214 0.218446,4.16141 2.337378,8.19175 3.604368,9.8301 2.785194,3.48423 4.915048,5.19903 5.570387,5.63592 2.424758,-1.14684 4.783983,-3.86651 6.291263,-5.50485 1.19053,-1.88957 2.97087,-4.50001 2.32646,-9.86287 -0.88471,-3.22208 -2.45753,-5.95266 -3.73544,-9.07645 -2.162623,-5.11165 1.67112,-16.055825 5.20995,-23.657767 8.38835,-1.703884 22.93689,-1.703885 24.37864,-9.043691 C 131.46116,64.747572 119.53398,45.218446 104.7233,30.538835 102.67637,28.508607 74.284785,-1.3080294 69.092227,0.06950928 Z"
       transform="translate(-1.7070964,0.15637164)" /></g></svg>
