<?xml version="1.0" encoding="UTF-8" standalone="no"?>
<!-- Created with Inkscape (http://www.inkscape.org/) -->

<svg
   width="512"
   height="512"
   viewBox="0 0 135.46666 135.46667"
   version="1.1"
   id="svg1"
   xml:space="preserve"
   inkscape:version="1.4 (86a8ad7, 2024-10-11)"
   sodipodi:docname="squid-2.svg"
   xmlns:inkscape="http://www.inkscape.org/namespaces/inkscape"
   xmlns:sodipodi="http://sodipodi.sourceforge.net/DTD/sodipodi-0.dtd"
   xmlns="http://www.w3.org/2000/svg"
   xmlns:svg="http://www.w3.org/2000/svg"><sodipodi:namedview
     id="namedview1"
     pagecolor="#ffffff"
     bordercolor="#000000"
     borderopacity="0.25"
     inkscape:showpageshadow="2"
     inkscape:pageopacity="0.0"
     inkscape:pagecheckerboard="true"
     inkscape:deskcolor="#d1d1d1"
     inkscape:document-units="mm"
     inkscape:zoom="5.709669"
     inkscape:cx="346.16718"
     inkscape:cy="352.29713"
     inkscape:window-width="2560"
     inkscape:window-height="1351"
     inkscape:window-x="-9"
     inkscape:window-y="-9"
     inkscape:window-maximized="1"
     inkscape:current-layer="layer1" /><defs
     id="defs1"><inkscape:path-effect
       effect="mirror_symmetry"
       start_point="69.440774,135.13107"
       end_point="69.440774,0.023229853"
       center_point="69.440774,67.57715"
       id="path-effect1"
       is_visible="true"
       lpeversion="1.2"
       lpesatellites=""
       mode="free"
       discard_orig_path="false"
       fuse_paths="true"
       oposite_fuse="true"
       split_items="false"
       split_open="false"
       link_styles="false" /></defs><g
     inkscape:label="Layer 1"
     inkscape:groupmode="layer"
     id="layer1"><path
       style="fill:#ffffff;fill-opacity:1;stroke-width:17.9917;stroke-linecap:square"
       d="M 69.441406,0.0234375 C 63.443249,-0.09616934 36.163128,28.550497 34.158203,30.539062 19.347523,45.218674 7.4199994,64.747403 8.5996094,74.970703 c 1.4417496,7.339806 15.9905566,7.339085 24.3789066,9.042969 3.677848,0.836372 5.777137,13.478915 5.210937,23.658208 -2.22819,9.72632 -1.868952,6.57479 -2.294922,9.79687 -0.64441,5.36286 -0.862405,7.67098 0.328125,9.56055 1.4146,2.24075 2.570196,4.821 6.75586,5.55078 4.715248,0.69595 7.922317,-3.81823 8.988281,-10.27539 2.134268,5.75342 1.370639,4.27368 3.292969,8.10742 2.391991,3.04733 3.652107,4.40301 6.291015,4.71875 2.41781,-0.6229 4.012034,-2.41579 6.160156,-6.94727 0.736421,-2.15478 0.08146,-0.0817 1.730469,-4.90234 1.649004,4.8206 0.992095,2.74756 1.728516,4.90234 2.148123,4.53148 3.742346,6.32437 6.160156,6.94727 2.638908,-0.31574 3.899025,-1.67142 6.291016,-4.71875 1.92233,-3.83374 1.1587,-2.354 3.292968,-8.10742 1.065964,6.45716 4.274987,10.97134 8.990235,10.27539 4.185663,-0.72978 5.339303,-3.31003 6.753903,-5.55078 1.19053,-1.88957 0.97254,-4.19769 0.32813,-9.56055 -0.42597,-3.22208 -0.0648,-0.0706 -2.29297,-9.79687 -0.5662,-10.179293 1.53114,-22.821836 5.20898,-23.658208 8.38835,-1.703884 22.93716,-1.703163 24.37891,-9.042969 1.17961,-10.2233 -10.74791,-29.752029 -25.55859,-44.431641 C 102.71773,28.550497 75.439563,-0.09616934 69.441406,0.0234375 Z"
       id="path1"
       sodipodi:nodetypes="cccccccccccccccccccccccccc"
       inkscape:path-effect="#path-effect1"
       inkscape:original-d="M 69.092227,0.06950928 31.849515,33.160194 8.5194173,76.281552 l 23.7232997,7.601942 5.766991,20.446606 -4.325242,14.67961 2.097088,6.68446 6.946601,6.5534 5.76699,-6.16019 3.276698,-9.69903 1.703885,10.74757 6.946601,7.99515 7.07767,-7.60194 1.802185,-4.65292 c 1.824025,5.34101 1.111427,3.09532 1.867718,5.30825 2.148123,4.53148 3.742383,6.32371 6.160193,6.94661 2.638908,-0.31574 3.899272,-1.67112 6.291263,-4.71845 1.92233,-3.83374 1.158333,-2.3553 3.292601,-8.10872 1.065964,6.45716 4.274149,10.97195 8.989397,10.276 4.185664,-0.72978 5.340054,-3.31044 6.754654,-5.55119 1.19053,-1.88957 0.97305,-4.1962 0.32864,-9.55906 -0.42597,-3.22208 -0.0655,-0.071 -2.29369,-9.79732 -0.5662,-10.179288 1.5321,-22.821395 5.20995,-23.657767 8.38835,-1.703884 22.93689,-1.703885 24.37864,-9.043691 C 131.46116,64.747572 119.53398,45.218446 104.7233,30.538835 102.67637,28.508607 74.284785,-1.3080294 69.092227,0.06950928 Z"
       transform="translate(-1.7070964,0.15637164)" /></g></svg>
